<svg xmlns="http://www.w3.org/2000/svg" width="267" height="267" fill-rule="evenodd" stroke-linejoin="round" stroke-miterlimit="2" clip-rule="evenodd"><circle cx="133.333" cy="133.333" r="108.333" fill="#fed29d"/><circle cx="133.333" cy="133.333" r="94.601" fill="#fbf0cf"/><path fill="#f9b22a" d="M128.045 96.001v-26.31a3.126 3.126 0 0 0-6.25 0v26.31a3.127 3.127 0 0 0 3.125 3.125 3.127 3.127 0 0 0 3.125-3.125zm-12.263 2.156V69.691a3.126 3.126 0 0 0-6.25 0v28.466c0 1.724 1.4 3.125 3.125 3.125a3.127 3.127 0 0 0 3.125-3.125zm-12.264.837V69.691a3.126 3.126 0 0 0-6.25 0v29.303a3.126 3.126 0 0 0 6.25 0zm-12.263-.837V69.691a3.126 3.126 0 0 0-6.25 0v28.466c0 1.724 1.4 3.125 3.125 3.125a3.127 3.127 0 0 0 3.125-3.125z"/><path fill="#f48307" d="M101.2 117.434c1.761.438 3.584.665 5.43.665h.006c1.446 0 2.878-.14 4.277-.41 2.525 8.485 4.2 23.336 4.2 40.224 0 26.342-1.945 47.729-9.095 47.729-7.149 0-9.094-21.387-9.094-47.729 0-17.059 1.709-32.04 4.276-40.479Z"/><path fill="#f9b22a" d="M170.384 65.868c-20.105 8.5-26.337 20.318-27.387 46.514v25.058h27.387V65.868Z"/><path fill="#f48307" d="M170.384 137.44H156.69s-4.842 32.916-4.842 53.512c0 17.43 18.536 14.159 18.536 14.159V137.44Z"/><path fill="#f9b22a" d="M128.045 96.001a3.125 3.125 0 0 0-4.209-2.931c-11.538 4.268-23.076 4.304-34.614.002a3.125 3.125 0 0 0-4.217 2.929c0 6.614 2.217 12.947 6.11 17.624 4.079 4.901 9.639 7.599 15.408 7.599h.005c5.768 0 11.328-2.698 15.407-7.599 3.893-4.677 6.11-11.01 6.11-17.624Z"/></svg>