<svg xmlns="http://www.w3.org/2000/svg" width="64" height="64"><path fill-rule="evenodd" d="M32 0A32 32 0 0 0 0 32a32 32 0 0 0 32 32 32 32 0 0 0 32-32A32 32 0 0 0 32 0zM20.74 15.834c.128 0 .256.049.354.146l3.537 3.536 3.181 3.181a1.484 1.484 0 0 1 .319 1.63l-.647 1.528L47.818 45.05a1.021 1.021 0 0 1 .022 1.465l-1.205 1.203a.962.962 0 0 1-1.381-.018L26.024 27.32l-1.532.647a1.484 1.484 0 0 1-1.627-.317l-1.062-1.06-2.121-2.123-3.182-3.182-.354-.353a.499.499 0 1 1 .708-.707l.353.353 3.182 3.182 2.123 2.12a.499.499 0 1 0 .707-.706l-2.12-2.12h-.005l-3.535-3.534a.499.499 0 1 1 .707-.707l3.537 3.535 2.12 2.12a.499.499 0 1 0 .708-.706L22.51 21.64l-3.537-3.536a.499.499 0 1 1 .707-.707l3.537 3.536 2.12 2.12a.499.499 0 1 0 .708-.706l-2.121-2.121-3.537-3.536a.499.499 0 0 1 .353-.853v-.004zm24.645 1.674c.76-.002 1.55.076 2.379.242l-13.31 13.313-3.64-3.432 5.99-5.99c2.586-2.586 5.288-4.12 8.58-4.131v-.002zm-16.33 14.486 2.17 2.297L19.48 46.035a1 1 0 0 1-1.414 0l-1.416-1.414a.952.952 0 0 1 .034-1.379l12.37-11.248z"/></svg>